<svg width="215" height="86" viewBox="0 0 215 86" fill="none" xmlns="http://www.w3.org/2000/svg">
<rect x="25.9922" y="17.4325" width="155.954" height="68.0657" fill="#FAFF12"/>
<rect x="28.4057" y="0.695007" width="157.606" height="78.7255" fill="#FAFF12"/>
<path d="M66.8011 49.32C66.1211 49.32 65.4611 49.245 64.8211 49.095C64.1811 48.935 63.6011 48.655 63.0811 48.255C62.5711 47.855 62.1661 47.3 61.8661 46.59C61.5661 45.88 61.4161 44.97 61.4161 43.86C61.4161 42.83 61.5661 41.965 61.8661 41.265C62.1661 40.565 62.5661 40.005 63.0661 39.585C63.5661 39.165 64.1111 38.865 64.7011 38.685C65.3011 38.495 65.9011 38.4 66.5011 38.4C67.0111 38.4 67.5061 38.44 67.9861 38.52C68.4761 38.6 68.8311 38.69 69.0511 38.79L70.7161 40.155L69.3661 42.33L66.8011 41.01C66.0911 41.01 65.4911 41.245 65.0011 41.715C64.5111 42.175 64.2661 42.89 64.2661 43.86C64.2661 44.55 64.3861 45.11 64.6261 45.54C64.8761 45.97 65.2161 46.285 65.6461 46.485C66.0761 46.685 66.5661 46.785 67.1161 46.785C67.6961 46.785 68.1911 46.74 68.6011 46.65C69.0111 46.55 69.3711 46.435 69.6811 46.305C69.9911 46.165 70.2861 46.03 70.5661 45.9V48.42C70.2161 48.64 69.7511 48.845 69.1711 49.035C68.5911 49.225 67.8011 49.32 66.8011 49.32ZM70.9311 49.17L71.6511 46.635V44.73L72.7611 44.28L74.7111 38.565H78.5961L81.0111 45.285L82.1661 47.415V49.17H79.5111L78.7611 46.77H74.3961L73.7511 49.17H70.9311ZM75.3861 44.46H77.9361L76.7961 41.025H76.4811L75.3861 44.46ZM83.0594 49.17V40.965L82.7594 39.45L83.0594 38.55H87.8594C88.5894 38.55 89.2444 38.665 89.8244 38.895C90.4144 39.115 90.8794 39.495 91.2194 40.035C91.5694 40.565 91.7444 41.3 91.7444 42.24C91.7444 43.09 91.5894 43.78 91.2794 44.31C90.9694 44.83 90.5394 45.22 89.9894 45.48L90.1394 45.645L91.6244 47.505L92.4794 48.27V49.17H89.1044L87.0044 45.975H85.7594V46.755L85.9094 48.255L85.7594 49.17H83.0594ZM85.7594 43.62H87.2294C87.7494 43.62 88.1644 43.525 88.4744 43.335C88.7844 43.135 88.9394 42.77 88.9394 42.24C88.9394 41.87 88.8644 41.595 88.7144 41.415C88.5644 41.225 88.3544 41.1 88.0844 41.04C87.8244 40.98 87.5194 40.95 87.1694 40.95H85.6094L85.7594 43.62ZM93.226 49.17V40.95L93.076 39.45L93.226 38.55H95.941V49.17H93.226ZM102.838 49.17V40.95L99.8377 41.1V38.55H108.613V41.1L105.538 40.95V46.77L105.703 48.27L105.538 49.17H102.838ZM109.663 49.17L109.363 48.27L109.663 46.77V38.55H117.088L117.838 39L116.848 41.1L115.498 40.95H112.363V42.6H116.398V44.925H114.628L112.363 44.775V46.77H116.848L118.633 48.21L117.748 49.17H109.663ZM119.54 49.17V40.965L119.24 39.465L119.555 38.565H122.42L125.36 44.265H125.66L128.09 38.565H131.075L131.225 39.465L131.075 40.905V49.17H128.36L128.405 47.895V43.71H128.24L127.64 45.15L126.29 47.67H124.49L122.42 43.71H122.27V44.925L122.42 49.17H119.54ZM131.824 49.17L132.544 46.635V44.73L133.654 44.28L135.604 38.565H139.489L141.904 45.285L143.059 47.415V49.17H140.404L139.654 46.77H135.289L134.644 49.17H131.824ZM136.279 44.46H138.829L137.689 41.025H137.374L136.279 44.46ZM143.952 49.17V40.965L143.652 39.465L143.952 38.565H146.367L149.397 42.645L150.117 43.89H150.267V38.565H153.102V39.465L152.952 40.965V49.17H150.597L146.832 43.89H146.682V44.79L146.832 49.17H143.952Z" fill="black"/>
</svg>
