<svg width="215" height="102" viewBox="0 0 215 102" fill="none" xmlns="http://www.w3.org/2000/svg">
<rect x="25.9922" y="14.5058" width="159.776" height="69.1815" fill="#FAFF12"/>
<rect x="25.9922" y="23.4325" width="155.954" height="68.0657" fill="#FAFF12"/>
<rect x="28.4057" y="6.69501" width="157.606" height="78.7255" fill="#FAFF12"/>
<line x1="204.956" y1="0.4" x2="6.11584" y2="0.40001" stroke="white" stroke-width="0.8"/>
<line x1="94.7953" y1="100.825" x2="6.11582" y2="100.825" stroke="white" stroke-width="0.8"/>
<line x1="204.88" y1="100.825" x2="116.201" y2="100.825" stroke="white" stroke-width="0.8"/>
<path d="M66.8011 55.32C66.1211 55.32 65.4611 55.245 64.8211 55.095C64.1811 54.935 63.6011 54.655 63.0811 54.255C62.5711 53.855 62.1661 53.3 61.8661 52.59C61.5661 51.88 61.4161 50.97 61.4161 49.86C61.4161 48.83 61.5661 47.965 61.8661 47.265C62.1661 46.565 62.5661 46.005 63.0661 45.585C63.5661 45.165 64.1111 44.865 64.7011 44.685C65.3011 44.495 65.9011 44.4 66.5011 44.4C67.0111 44.4 67.5061 44.44 67.9861 44.52C68.4761 44.6 68.8311 44.69 69.0511 44.79L70.7161 46.155L69.3661 48.33L66.8011 47.01C66.0911 47.01 65.4911 47.245 65.0011 47.715C64.5111 48.175 64.2661 48.89 64.2661 49.86C64.2661 50.55 64.3861 51.11 64.6261 51.54C64.8761 51.97 65.2161 52.285 65.6461 52.485C66.0761 52.685 66.5661 52.785 67.1161 52.785C67.6961 52.785 68.1911 52.74 68.6011 52.65C69.0111 52.55 69.3711 52.435 69.6811 52.305C69.9911 52.165 70.2861 52.03 70.5661 51.9V54.42C70.2161 54.64 69.7511 54.845 69.1711 55.035C68.5911 55.225 67.8011 55.32 66.8011 55.32ZM70.9311 55.17L71.6511 52.635V50.73L72.7611 50.28L74.7111 44.565H78.5961L81.0111 51.285L82.1661 53.415V55.17H79.5111L78.7611 52.77H74.3961L73.7511 55.17H70.9311ZM75.3861 50.46H77.9361L76.7961 47.025H76.4811L75.3861 50.46ZM83.0594 55.17V46.965L82.7594 45.45L83.0594 44.55H87.8594C88.5894 44.55 89.2444 44.665 89.8244 44.895C90.4144 45.115 90.8794 45.495 91.2194 46.035C91.5694 46.565 91.7444 47.3 91.7444 48.24C91.7444 49.09 91.5894 49.78 91.2794 50.31C90.9694 50.83 90.5394 51.22 89.9894 51.48L90.1394 51.645L91.6244 53.505L92.4794 54.27V55.17H89.1044L87.0044 51.975H85.7594V52.755L85.9094 54.255L85.7594 55.17H83.0594ZM85.7594 49.62H87.2294C87.7494 49.62 88.1644 49.525 88.4744 49.335C88.7844 49.135 88.9394 48.77 88.9394 48.24C88.9394 47.87 88.8644 47.595 88.7144 47.415C88.5644 47.225 88.3544 47.1 88.0844 47.04C87.8244 46.98 87.5194 46.95 87.1694 46.95H85.6094L85.7594 49.62ZM93.226 55.17V46.95L93.076 45.45L93.226 44.55H95.941V55.17H93.226ZM102.838 55.17V46.95L99.8377 47.1V44.55H108.613V47.1L105.538 46.95V52.77L105.703 54.27L105.538 55.17H102.838ZM109.663 55.17L109.363 54.27L109.663 52.77V44.55H117.088L117.838 45L116.848 47.1L115.498 46.95H112.363V48.6H116.398V50.925H114.628L112.363 50.775V52.77H116.848L118.633 54.21L117.748 55.17H109.663ZM119.54 55.17V46.965L119.24 45.465L119.555 44.565H122.42L125.36 50.265H125.66L128.09 44.565H131.075L131.225 45.465L131.075 46.905V55.17H128.36L128.405 53.895V49.71H128.24L127.64 51.15L126.29 53.67H124.49L122.42 49.71H122.27V50.925L122.42 55.17H119.54ZM131.824 55.17L132.544 52.635V50.73L133.654 50.28L135.604 44.565H139.489L141.904 51.285L143.059 53.415V55.17H140.404L139.654 52.77H135.289L134.644 55.17H131.824ZM136.279 50.46H138.829L137.689 47.025H137.374L136.279 50.46ZM143.952 55.17V46.965L143.652 45.465L143.952 44.565H146.367L149.397 48.645L150.117 49.89H150.267V44.565H153.102V45.465L152.952 46.965V55.17H150.597L146.832 49.89H146.682V50.79L146.832 55.17H143.952Z" fill="black"/>
</svg>
