<svg width="354" height="85" viewBox="0 0 354 85" fill="none" xmlns="http://www.w3.org/2000/svg">
<rect x="44.4805" y="7.81055" width="263.295" height="69.1815" fill="#FAFF12"/>
<rect x="44.4805" y="16.7373" width="256.996" height="68.0657" fill="#FAFF12"/>
<rect x="48.458" width="259.72" height="78.7255" fill="#FAFF12"/>
<path d="M163.001 46.4547C162.711 46.4547 162.436 46.4397 162.176 46.4097C161.926 46.3797 161.696 46.3447 161.486 46.3047L159.536 45.4047L160.436 43.1247L163.211 44.0847C163.831 44.0847 164.276 43.8997 164.546 43.5297C164.816 43.1497 164.951 42.5797 164.951 41.8197V38.0847L164.621 36.5847L164.786 35.6847H167.621L167.636 42.2997C167.636 43.6397 167.236 44.6697 166.436 45.3897C165.636 46.0997 164.491 46.4547 163.001 46.4547ZM173.923 46.4547C173.283 46.4547 172.658 46.3797 172.048 46.2297C171.448 46.0697 170.903 45.7897 170.413 45.3897C169.933 44.9897 169.548 44.4347 169.258 43.7247C168.978 43.0147 168.838 42.1047 168.838 40.9947C168.838 39.8847 168.978 38.9747 169.258 38.2647C169.548 37.5547 169.933 36.9997 170.413 36.5997C170.903 36.1997 171.448 35.9247 172.048 35.7747C172.658 35.6147 173.283 35.5347 173.923 35.5347C174.563 35.5347 175.183 35.6147 175.783 35.7747C176.393 35.9347 176.938 36.2147 177.418 36.6147C177.908 37.0147 178.293 37.5697 178.573 38.2797C178.863 38.9897 179.008 39.8947 179.008 40.9947C179.008 42.0947 178.863 42.9997 178.573 43.7097C178.293 44.4197 177.908 44.9747 177.418 45.3747C176.938 45.7747 176.393 46.0547 175.783 46.2147C175.183 46.3747 174.563 46.4547 173.923 46.4547ZM173.923 43.9047C174.663 43.9047 175.223 43.6847 175.603 43.2447C175.983 42.8047 176.173 42.0547 176.173 40.9947C176.173 39.9347 175.983 39.1847 175.603 38.7447C175.223 38.3047 174.663 38.0847 173.923 38.0847C173.193 38.0847 172.638 38.3097 172.258 38.7597C171.878 39.2097 171.688 39.9547 171.688 40.9947C171.688 42.0347 171.878 42.7797 172.258 43.2297C172.638 43.6797 173.193 43.9047 173.923 43.9047ZM180.205 46.3047V38.0847L180.055 36.5847L180.205 35.6847H182.92V46.3047H180.205ZM184.564 46.3047V38.0997L184.264 36.5997L184.564 35.6997H186.979L190.009 39.7797L190.729 41.0247H190.879V35.6997H193.714V36.5997L193.564 38.0997V46.3047H191.209L187.444 41.0247H187.294V41.9247L187.444 46.3047H184.564Z" fill="black"/>
</svg>
