<svg width="111" height="53" viewBox="0 0 111 53" fill="none" xmlns="http://www.w3.org/2000/svg">
<path d="M22.4086 8.20683C22.4086 12.7393 19.4372 16.4137 15.7718 16.4137C12.1064 16.4137 9.13507 12.7393 9.13507 8.20683C9.13507 3.67432 12.1064 0 15.7718 0C19.4372 0 22.4086 3.67432 22.4086 8.20683Z" fill="#108FAB"/>
<path d="M2.42346 29.9043C3.42814 23.2393 10.0547 18.4742 15.1436 18.0745C15.1443 18.4838 15.5525 22.0318 18.2349 24.0833C0.50398 31.901 14.9322 49.5896 11.0447 47.6722C5.54771 44.5239 1.41878 36.5692 2.42346 29.9043Z" fill="#108FAB"/>
<path d="M10.8332 35.3474C11.8158 28.8289 17.4928 24.3257 22.4707 25.1225C27.667 25.1225 33.3557 31.4222 26.1881 34.0056C8.03595 40.5478 26.719 54.6594 18.1104 50.8247C13.9764 48.5043 9.85057 41.866 10.8332 35.3474Z" fill="#08D3FF"/>
<rect x="27.6673" y="7.71576" width="2.46205" height="10.6188" rx="1.23102" transform="rotate(-90 27.6673 7.71576)" fill="#FFB800"/>
<rect x="34.304" y="11.8192" width="2.38923" height="10.9424" rx="1.19461" transform="rotate(-180 34.304 11.8192)" fill="#FFB800"/>
<path d="M29.5256 16.1963C29.5256 20.7288 26.5542 24.4031 22.8888 24.4031C19.2235 24.4031 16.2521 20.7288 16.2521 16.1963C16.2521 11.6638 19.2235 7.98944 22.8888 7.98944C26.5542 7.98944 29.5256 11.6638 29.5256 16.1963Z" fill="#08D3FF"/>
<path d="M26.3823 39.5396L26.3945 49H23.9531V36.4023H26.1992L26.3701 37.7817C27.2653 37.033 28.307 36.5448 29.4951 36.3169C29.8776 36.2437 30.252 36.207 30.6182 36.207C32.14 36.207 33.2874 36.8499 34.0605 38.1357C35.4766 36.8499 36.9577 36.207 38.5039 36.207C40.0339 36.207 41.1488 36.6668 41.8486 37.5864C42.5485 38.5223 42.8984 40.0685 42.8984 42.2251V49H40.457V42.3105C40.457 40.1947 39.9484 38.9292 38.9312 38.5142C38.5894 38.3758 38.1906 38.3066 37.7349 38.3066C36.6444 38.3066 35.6434 38.6973 34.7319 39.4785V49H32.2905V42.2129C32.2905 40.7643 32.0749 39.7471 31.6436 39.1611C31.2285 38.5915 30.4839 38.3066 29.4097 38.3066C28.3436 38.3066 27.3345 38.7176 26.3823 39.5396ZM45.6284 46.7539C45.3599 46.29 45.1442 45.7448 44.9814 45.1182C44.8268 44.4915 44.7495 43.6737 44.7495 42.6646C44.7495 41.6554 44.9652 40.7277 45.3965 39.8813C45.8359 39.0269 46.4056 38.327 47.1055 37.7817C48.4645 36.7319 50.1532 36.207 52.1714 36.207C53.2212 36.207 54.0146 36.2314 54.5518 36.2803C54.5518 36.2803 54.9465 36.321 55.7358 36.4023V49H53.5386L53.4409 47.5474C52.9526 48.1984 52.208 48.6826 51.207 49C50.8245 49.1221 50.4299 49.1831 50.0229 49.1831C49.6242 49.1831 49.2295 49.1424 48.8389 49.061C48.4482 48.9797 48.0576 48.8454 47.667 48.6582C47.2845 48.471 46.9183 48.2228 46.5684 47.9136C46.2184 47.5962 45.9051 47.2096 45.6284 46.7539ZM53.2944 38.1968C52.7736 38.1317 52.2528 38.0991 51.7319 38.0991C51.2192 38.0991 50.6699 38.1927 50.084 38.3799C49.498 38.5589 48.9976 38.8438 48.5825 39.2344C47.7199 40.0482 47.2886 41.2892 47.2886 42.9575C47.2886 44.5363 47.6589 45.7041 48.3994 46.4609C48.9609 47.0225 49.6364 47.3032 50.4258 47.3032C51.443 47.3032 52.2812 46.9329 52.9404 46.1924C53.1032 46.0052 53.2212 45.8384 53.2944 45.6919V38.1968ZM66.7056 47.5962C66.0057 48.1414 65.2122 48.5443 64.3252 48.8047C63.4463 49.057 62.4941 49.1831 61.4688 49.1831C60.4515 49.1831 59.3122 49.1221 58.0508 49V30.8359H60.4922V37.6597C61.0293 37.0493 61.7739 36.6139 62.7261 36.3535C63.0841 36.2559 63.4504 36.207 63.8247 36.207C64.2072 36.207 64.5938 36.2477 64.9844 36.3291C65.375 36.4023 65.7616 36.5326 66.144 36.7197C66.5347 36.9069 66.9049 37.1551 67.2549 37.4644C67.6048 37.7736 67.9141 38.1602 68.1826 38.624C68.7767 39.6169 69.0737 40.7969 69.0737 42.1641C69.0737 43.5231 68.854 44.6299 68.4146 45.4844C67.9832 46.3389 67.4136 47.0428 66.7056 47.5962ZM60.5044 47.2056C60.7323 47.2707 61.1799 47.3032 61.8472 47.3032C62.5145 47.3032 63.1411 47.2096 63.7271 47.0225C64.313 46.8353 64.8135 46.5423 65.2285 46.1436C66.0993 45.3053 66.5347 44.0562 66.5347 42.396C66.5347 40.3696 65.9447 39.0431 64.7646 38.4165C64.3415 38.1968 63.9102 38.0869 63.4707 38.0869C63.0312 38.0869 62.6488 38.1439 62.3232 38.2578C61.9977 38.3717 61.7129 38.5101 61.4688 38.6729C61.0049 38.9902 60.6834 39.332 60.5044 39.6982V47.2056ZM71.2544 46.7539C70.9858 46.29 70.7702 45.7448 70.6074 45.1182C70.4528 44.4915 70.3755 43.6737 70.3755 42.6646C70.3755 41.6554 70.5911 40.7277 71.0225 39.8813C71.4619 39.0269 72.0316 38.327 72.7314 37.7817C74.0905 36.7319 75.7791 36.207 77.7974 36.207C78.8472 36.207 79.6406 36.2314 80.1777 36.2803C80.1777 36.2803 80.5724 36.321 81.3618 36.4023V49H79.1646L79.0669 47.5474C78.5786 48.1984 77.834 48.6826 76.833 49C76.4505 49.1221 76.0558 49.1831 75.6489 49.1831C75.2502 49.1831 74.8555 49.1424 74.4648 49.061C74.0742 48.9797 73.6836 48.8454 73.293 48.6582C72.9105 48.471 72.5443 48.2228 72.1943 47.9136C71.8444 47.5962 71.5311 47.2096 71.2544 46.7539ZM78.9204 38.1968C78.3996 38.1317 77.8787 38.0991 77.3579 38.0991C76.8452 38.0991 76.2959 38.1927 75.71 38.3799C75.124 38.5589 74.6235 38.8438 74.2085 39.2344C73.3459 40.0482 72.9146 41.2892 72.9146 42.9575C72.9146 44.5363 73.2848 45.7041 74.0254 46.4609C74.5869 47.0225 75.2624 47.3032 76.0518 47.3032C77.069 47.3032 77.9072 46.9329 78.5664 46.1924C78.7292 46.0052 78.8472 45.8384 78.9204 45.6919V38.1968ZM91.5259 38.6362C91.0783 38.506 90.5412 38.4409 89.9146 38.4409C89.2961 38.4409 88.7874 38.506 88.3887 38.6362C87.9899 38.7583 87.64 38.9089 87.3389 39.0879C86.7855 39.4134 86.3826 39.7796 86.1304 40.1865V49H83.689V36.4023H86.0327L86.1304 38.1479C86.7407 37.383 87.6318 36.8092 88.8037 36.4268C89.2269 36.2803 89.7111 36.207 90.2563 36.207C90.8016 36.207 91.2248 36.2477 91.5259 36.3291V38.6362ZM95.0371 32.7402C95.0371 33.2041 94.8825 33.5622 94.5732 33.8145C94.2721 34.0586 93.8937 34.1807 93.438 34.1807C92.9823 34.1807 92.6038 34.0586 92.3027 33.8145C92.0098 33.5622 91.8633 33.2041 91.8633 32.7402C91.8633 32.2682 92.0098 31.9102 92.3027 31.666C92.6038 31.4219 92.9823 31.2998 93.438 31.2998C93.8937 31.2998 94.2721 31.4219 94.5732 31.666C94.8825 31.9102 95.0371 32.2682 95.0371 32.7402ZM92.1807 36.4023H94.6221V49H92.1807V36.4023ZM102.394 38.3066C101.181 38.3066 100.103 38.7176 99.1587 39.5396V49H96.7173V36.4023H98.9756L99.1465 37.7695C100.473 36.7279 101.844 36.207 103.26 36.207C104.758 36.207 105.856 36.6546 106.556 37.5498C107.289 38.4938 107.655 40.0156 107.655 42.1152V49H105.213V42.1152C105.213 40.097 104.668 38.8926 103.578 38.502C103.228 38.3717 102.833 38.3066 102.394 38.3066Z" fill="white"/>
</svg>
