<svg width="216" height="107" viewBox="0 0 216 107" fill="none" xmlns="http://www.w3.org/2000/svg">
<rect x="26.9922" y="14.5058" width="159.776" height="69.1815" fill="#FAFF12"/>
<rect x="26.9922" y="23.4325" width="155.954" height="68.0657" fill="#FAFF12"/>
<rect x="29.4058" y="6.69501" width="157.606" height="78.7255" fill="#FAFF12"/>
<line x1="205.956" y1="0.4" x2="7.11584" y2="0.40001" stroke="white" stroke-width="0.8"/>
<line x1="95.7954" y1="100.825" x2="7.11591" y2="100.825" stroke="white" stroke-width="0.8"/>
<line x1="205.88" y1="100.825" x2="117.201" y2="100.825" stroke="white" stroke-width="0.8"/>
<path d="M67.8011 35.15C67.1211 35.15 66.4611 35.075 65.8211 34.925C65.1811 34.765 64.6011 34.485 64.0811 34.085C63.5711 33.685 63.1661 33.13 62.8661 32.42C62.5661 31.71 62.4161 30.8 62.4161 29.69C62.4161 28.66 62.5661 27.795 62.8661 27.095C63.1661 26.395 63.5661 25.835 64.0661 25.415C64.5661 24.995 65.1111 24.695 65.7011 24.515C66.3011 24.325 66.9011 24.23 67.5011 24.23C68.0111 24.23 68.5061 24.27 68.9861 24.35C69.4761 24.43 69.8311 24.52 70.0511 24.62L71.7161 25.985L70.3661 28.16L67.8011 26.84C67.0911 26.84 66.4911 27.075 66.0011 27.545C65.5111 28.005 65.2661 28.72 65.2661 29.69C65.2661 30.38 65.3861 30.94 65.6261 31.37C65.8761 31.8 66.2161 32.115 66.6461 32.315C67.0761 32.515 67.5661 32.615 68.1161 32.615C68.6961 32.615 69.1911 32.57 69.6011 32.48C70.0111 32.38 70.3711 32.265 70.6811 32.135C70.9911 31.995 71.2861 31.86 71.5661 31.73V34.25C71.2161 34.47 70.7511 34.675 70.1711 34.865C69.5911 35.055 68.8011 35.15 67.8011 35.15ZM71.9311 35L72.6511 32.465V30.56L73.7611 30.11L75.7111 24.395H79.5961L82.0111 31.115L83.1661 33.245V35H80.5111L79.7611 32.6H75.3961L74.7511 35H71.9311ZM76.3861 30.29H78.9361L77.7961 26.855H77.4811L76.3861 30.29ZM84.0594 35V26.795L83.7594 25.28L84.0594 24.38H88.8594C89.5894 24.38 90.2444 24.495 90.8244 24.725C91.4144 24.945 91.8794 25.325 92.2194 25.865C92.5694 26.395 92.7444 27.13 92.7444 28.07C92.7444 28.92 92.5894 29.61 92.2794 30.14C91.9694 30.66 91.5394 31.05 90.9894 31.31L91.1394 31.475L92.6244 33.335L93.4794 34.1V35H90.1044L88.0044 31.805H86.7594V32.585L86.9094 34.085L86.7594 35H84.0594ZM86.7594 29.45H88.2294C88.7494 29.45 89.1644 29.355 89.4744 29.165C89.7844 28.965 89.9394 28.6 89.9394 28.07C89.9394 27.7 89.8644 27.425 89.7144 27.245C89.5644 27.055 89.3544 26.93 89.0844 26.87C88.8244 26.81 88.5194 26.78 88.1694 26.78H86.6094L86.7594 29.45ZM94.226 35V26.78L94.076 25.28L94.226 24.38H96.941V35H94.226ZM103.838 35V26.78L100.838 26.93V24.38H109.613V26.93L106.538 26.78V32.6L106.703 34.1L106.538 35H103.838ZM110.663 35L110.363 34.1L110.663 32.6V24.38H118.088L118.838 24.83L117.848 26.93L116.498 26.78H113.363V28.43H117.398V30.755H115.628L113.363 30.605V32.6H117.848L119.633 34.04L118.748 35H110.663ZM120.54 35V26.795L120.24 25.295L120.555 24.395H123.42L126.36 30.095H126.66L129.09 24.395H132.075L132.225 25.295L132.075 26.735V35H129.36L129.405 33.725V29.54H129.24L128.64 30.98L127.29 33.5H125.49L123.42 29.54H123.27V30.755L123.42 35H120.54ZM132.824 35L133.544 32.465V30.56L134.654 30.11L136.604 24.395H140.489L142.904 31.115L144.059 33.245V35H141.404L140.654 32.6H136.289L135.644 35H132.824ZM137.279 30.29H139.829L138.689 26.855H138.374L137.279 30.29ZM144.952 35V26.795L144.652 25.295L144.952 24.395H147.367L150.397 28.475L151.117 29.72H151.267V24.395H154.102V25.295L153.952 26.795V35H151.597L147.832 29.72H147.682V30.62L147.832 35H144.952Z" fill="black"/>
<path d="M73.9942 71V62.248L73.6742 60.632L73.9942 59.672H79.1142C79.8929 59.672 80.5916 59.7947 81.2102 60.04C81.8396 60.2747 82.3356 60.68 82.6982 61.256C83.0716 61.8213 83.2582 62.6053 83.2582 63.608C83.2582 64.5147 83.0929 65.2507 82.7622 65.816C82.4316 66.3707 81.9729 66.7867 81.3862 67.064L81.5462 67.24L83.1302 69.224L84.0422 70.04V71H80.4422L78.2022 67.592H76.8742V68.424L77.0342 70.024L76.8742 71H73.9942ZM76.8742 65.08H78.4422C78.9969 65.08 79.4396 64.9787 79.7702 64.776C80.1009 64.5627 80.2662 64.1733 80.2662 63.608C80.2662 63.2133 80.1862 62.92 80.0262 62.728C79.8662 62.5253 79.6422 62.392 79.3542 62.328C79.0769 62.264 78.7516 62.232 78.3782 62.232H76.7142L76.8742 65.08ZM84.6786 74.888V66.168L84.3586 64.408L84.8546 63.432H87.2386V64.12L87.3986 64.2C87.3986 64.2 87.4946 64.12 87.6866 63.96C87.8786 63.8 88.1399 63.6453 88.4706 63.496C88.8119 63.336 89.2066 63.256 89.6546 63.256C90.6039 63.256 91.3453 63.56 91.8786 64.168C92.4226 64.776 92.6946 65.736 92.6946 67.048C92.6946 68.0293 92.5559 68.824 92.2786 69.432C92.0119 70.0293 91.6493 70.4613 91.1906 70.728C90.7319 70.9947 90.2199 71.128 89.6546 71.128C88.8866 71.128 88.3426 71.0693 88.0226 70.952C87.7133 70.824 87.5586 70.76 87.5586 70.76V74.888H84.6786ZM88.2946 68.936C88.6999 68.936 89.0253 68.792 89.2706 68.504C89.5266 68.216 89.6546 67.7787 89.6546 67.192C89.6546 66.616 89.5533 66.1947 89.3506 65.928C89.1479 65.6613 88.8493 65.528 88.4546 65.528L87.5586 65.864V68.728C87.5586 68.728 87.6119 68.7653 87.7186 68.84C87.8359 68.904 88.0279 68.936 88.2946 68.936ZM95.1736 71.48L93.4136 69.72L95.1736 67.96L96.9336 69.72L95.1736 71.48ZM105.694 71.16C105.289 71.16 104.91 71.1493 104.558 71.128C104.217 71.1067 103.897 71.0747 103.598 71.032L101.262 70.296L102.062 67.432L105.374 68.472C105.94 68.472 106.377 68.3813 106.686 68.2C107.006 68.008 107.166 67.6773 107.166 67.208C107.166 66.856 107.044 66.584 106.798 66.392C106.564 66.2 106.148 66.104 105.55 66.104H101.902V59.672H109.662V62.376L105.662 62.216H104.99V63.752H106.062C107.545 63.752 108.622 64.0613 109.294 64.68C109.966 65.2987 110.302 66.1627 110.302 67.272C110.302 68.0933 110.11 68.7973 109.726 69.384C109.353 69.96 108.82 70.4027 108.126 70.712C107.444 71.0107 106.633 71.16 105.694 71.16ZM116.035 71.16C115.128 71.16 114.312 70.9733 113.587 70.6C112.872 70.2267 112.307 69.6187 111.891 68.776C111.475 67.9227 111.267 66.776 111.267 65.336C111.267 63.9067 111.475 62.7707 111.891 61.928C112.307 61.0747 112.872 60.4613 113.587 60.088C114.312 59.704 115.128 59.512 116.035 59.512C116.952 59.512 117.768 59.704 118.483 60.088C119.197 60.472 119.763 61.0907 120.179 61.944C120.595 62.7867 120.803 63.9173 120.803 65.336C120.803 66.7547 120.595 67.8907 120.179 68.744C119.763 69.5973 119.197 70.216 118.483 70.6C117.768 70.9733 116.952 71.16 116.035 71.16ZM116.035 68.376C116.611 68.376 117.043 68.152 117.331 67.704C117.629 67.256 117.779 66.4667 117.779 65.336C117.779 64.2053 117.629 63.416 117.331 62.968C117.043 62.52 116.611 62.296 116.035 62.296C115.469 62.296 115.037 62.5253 114.739 62.984C114.44 63.4427 114.291 64.2267 114.291 65.336C114.291 66.4453 114.44 67.2293 114.739 67.688C115.037 68.1467 115.469 68.376 116.035 68.376ZM126.367 71.16C125.461 71.16 124.645 70.9733 123.919 70.6C123.205 70.2267 122.639 69.6187 122.223 68.776C121.807 67.9227 121.599 66.776 121.599 65.336C121.599 63.9067 121.807 62.7707 122.223 61.928C122.639 61.0747 123.205 60.4613 123.919 60.088C124.645 59.704 125.461 59.512 126.367 59.512C127.285 59.512 128.101 59.704 128.815 60.088C129.53 60.472 130.095 61.0907 130.511 61.944C130.927 62.7867 131.135 63.9173 131.135 65.336C131.135 66.7547 130.927 67.8907 130.511 68.744C130.095 69.5973 129.53 70.216 128.815 70.6C128.101 70.9733 127.285 71.16 126.367 71.16ZM126.367 68.376C126.943 68.376 127.375 68.152 127.663 67.704C127.962 67.256 128.111 66.4667 128.111 65.336C128.111 64.2053 127.962 63.416 127.663 62.968C127.375 62.52 126.943 62.296 126.367 62.296C125.802 62.296 125.37 62.5253 125.071 62.984C124.773 63.4427 124.623 64.2267 124.623 65.336C124.623 66.4453 124.773 67.2293 125.071 67.688C125.37 68.1467 125.802 68.376 126.367 68.376ZM136.7 71.16C135.793 71.16 134.977 70.9733 134.252 70.6C133.537 70.2267 132.972 69.6187 132.556 68.776C132.14 67.9227 131.932 66.776 131.932 65.336C131.932 63.9067 132.14 62.7707 132.556 61.928C132.972 61.0747 133.537 60.4613 134.252 60.088C134.977 59.704 135.793 59.512 136.7 59.512C137.617 59.512 138.433 59.704 139.148 60.088C139.862 60.472 140.428 61.0907 140.844 61.944C141.26 62.7867 141.468 63.9173 141.468 65.336C141.468 66.7547 141.26 67.8907 140.844 68.744C140.428 69.5973 139.862 70.216 139.148 70.6C138.433 70.9733 137.617 71.16 136.7 71.16ZM136.7 68.376C137.276 68.376 137.708 68.152 137.996 67.704C138.294 67.256 138.444 66.4667 138.444 65.336C138.444 64.2053 138.294 63.416 137.996 62.968C137.708 62.52 137.276 62.296 136.7 62.296C136.134 62.296 135.702 62.5253 135.404 62.984C135.105 63.4427 134.956 64.2267 134.956 65.336C134.956 66.4453 135.105 67.2293 135.404 67.688C135.702 68.1467 136.134 68.376 136.7 68.376Z" fill="black"/>
</svg>
